<svg xmlns="http://www.w3.org/2000/svg" xmlns:xlink="http://www.w3.org/1999/xlink" width="129" zoomAndPan="magnify" viewBox="0 0 96.75 30.000001" height="40" preserveAspectRatio="xMidYMid meet" version="1.0"><defs><g/><clipPath id="34ebedfe59"><path d="M 2.457031 7.257812 L 22 7.257812 L 22 26.855469 L 2.457031 26.855469 Z M 2.457031 7.257812 " clip-rule="nonzero"/></clipPath></defs><path fill="#063e58" d="M 7.4375 19.160156 L 7.4375 22.792969 C 7.246094 22.644531 7.046875 22.46875 6.859375 22.300781 L 6.859375 19.34375 Z M 7.4375 19.160156 " fill-opacity="1" fill-rule="nonzero"/><path fill="#063e58" d="M 9.03125 18.617188 L 9.03125 23.714844 C 8.84375 23.636719 8.644531 23.550781 8.453125 23.441406 L 8.453125 18.8125 Z M 9.03125 18.617188 " fill-opacity="1" fill-rule="nonzero"/><path fill="#063e58" d="M 15.367188 16.308594 L 15.367188 17.773438 L 13.785156 17.234375 L 13.785156 24.058594 C 13.585938 24.109375 13.386719 24.148438 13.207031 24.1875 L 13.207031 15.574219 Z M 15.367188 16.308594 " fill-opacity="1" fill-rule="nonzero"/><path fill="#063e58" d="M 16.964844 19.34375 L 16.964844 22.300781 C 16.773438 22.46875 16.574219 22.644531 16.386719 22.792969 L 16.386719 19.414062 L 15.378906 19.082031 L 15.378906 23.433594 C 15.199219 23.519531 15 23.617188 14.800781 23.707031 L 14.800781 18.609375 Z M 16.964844 19.34375 " fill-opacity="1" fill-rule="nonzero"/><path fill="#063e58" d="M 17.960938 21.152344 L 17.960938 18.648438 L 16.375 18.117188 L 16.375 15.601562 L 12.199219 14.1875 L 12.199219 24.285156 C 12.011719 24.296875 11.8125 24.296875 11.621094 24.285156 L 11.621094 12.378906 L 13.792969 13.578125 L 13.792969 14.464844 L 14.792969 14.808594 L 14.792969 12.988281 L 10.605469 10.691406 L 10.605469 14.53125 L 7.4375 15.601562 L 7.4375 17.804688 L 8.445312 17.460938 L 8.445312 16.308594 L 10.605469 15.574219 L 10.605469 24.1875 C 10.425781 24.148438 10.226562 24.109375 10.039062 24.058594 L 10.039062 17.234375 L 5.863281 18.648438 L 5.863281 21.152344 C 5.015625 19.945312 4.578125 18.539062 4.578125 17.066406 C 4.578125 13.078125 7.867188 9.828125 11.921875 9.828125 C 15.957031 9.828125 19.246094 13.070312 19.246094 17.066406 C 19.246094 18.539062 18.808594 19.945312 17.960938 21.152344 Z M 17.960938 21.152344 " fill-opacity="1" fill-rule="nonzero"/><g clip-path="url(#34ebedfe59)"><path fill="#063e58" d="M 11.910156 7.765625 C 6.699219 7.765625 2.476562 11.929688 2.476562 17.054688 C 2.476562 22.195312 6.699219 26.347656 11.910156 26.347656 C 17.121094 26.347656 21.335938 22.195312 21.335938 17.054688 C 21.335938 11.929688 17.121094 7.765625 11.910156 7.765625 Z M 11.910156 25.289062 C 7.308594 25.289062 3.5625 21.59375 3.5625 17.054688 C 3.5625 12.527344 7.296875 8.835938 11.910156 8.835938 C 16.503906 8.835938 20.25 12.519531 20.25 17.054688 C 20.25 21.59375 16.515625 25.289062 11.910156 25.289062 Z M 11.910156 25.289062 " fill-opacity="1" fill-rule="nonzero"/></g><g fill="#063e58" fill-opacity="1"><g transform="translate(20.637093, 19.586215)"><g/></g></g><g fill="#063e58" fill-opacity="1"><g transform="translate(23.778474, 19.586215)"><g><path d="M 5.140625 0.140625 C 5.015625 0.140625 4.847656 0.128906 4.640625 0.109375 C 4.441406 0.0859375 4.222656 0.046875 3.984375 -0.015625 C 3.753906 -0.078125 3.507812 -0.15625 3.25 -0.25 C 2.988281 -0.351562 2.734375 -0.476562 2.484375 -0.625 C 2.234375 -0.78125 1.992188 -0.960938 1.765625 -1.171875 C 1.546875 -1.390625 1.351562 -1.632812 1.1875 -1.90625 C 1.019531 -2.1875 0.882812 -2.503906 0.78125 -2.859375 C 0.675781 -3.222656 0.625 -3.628906 0.625 -4.078125 C 0.625 -4.472656 0.675781 -4.847656 0.78125 -5.203125 C 0.894531 -5.566406 1.050781 -5.90625 1.25 -6.21875 C 1.457031 -6.53125 1.703125 -6.8125 1.984375 -7.0625 C 2.273438 -7.320312 2.597656 -7.539062 2.953125 -7.71875 C 3.304688 -7.894531 3.6875 -8.03125 4.09375 -8.125 C 4.507812 -8.226562 4.945312 -8.28125 5.40625 -8.28125 C 5.800781 -8.28125 6.179688 -8.234375 6.546875 -8.140625 C 6.921875 -8.046875 7.269531 -7.910156 7.59375 -7.734375 C 7.925781 -7.554688 8.222656 -7.34375 8.484375 -7.09375 C 8.753906 -6.84375 8.984375 -6.566406 9.171875 -6.265625 C 9.367188 -5.960938 9.519531 -5.632812 9.625 -5.28125 C 9.738281 -4.925781 9.796875 -4.5625 9.796875 -4.1875 C 9.796875 -3.820312 9.742188 -3.460938 9.640625 -3.109375 C 9.535156 -2.765625 9.382812 -2.429688 9.1875 -2.109375 C 9 -1.785156 8.765625 -1.484375 8.484375 -1.203125 C 8.210938 -0.929688 7.90625 -0.691406 7.5625 -0.484375 C 7.21875 -0.285156 6.84375 -0.128906 6.4375 -0.015625 C 6.03125 0.0859375 5.597656 0.140625 5.140625 0.140625 Z M 2.3125 -4.28125 C 2.3125 -3.976562 2.34375 -3.671875 2.40625 -3.359375 C 2.46875 -3.054688 2.554688 -2.757812 2.671875 -2.46875 C 2.796875 -2.1875 2.945312 -1.921875 3.125 -1.671875 C 3.300781 -1.421875 3.503906 -1.203125 3.734375 -1.015625 C 3.960938 -0.828125 4.21875 -0.679688 4.5 -0.578125 C 4.78125 -0.472656 5.082031 -0.421875 5.40625 -0.421875 C 5.863281 -0.421875 6.257812 -0.519531 6.59375 -0.71875 C 6.9375 -0.914062 7.21875 -1.175781 7.4375 -1.5 C 7.664062 -1.820312 7.832031 -2.191406 7.9375 -2.609375 C 8.050781 -3.035156 8.109375 -3.472656 8.109375 -3.921875 C 8.109375 -4.242188 8.078125 -4.5625 8.015625 -4.875 C 7.953125 -5.195312 7.859375 -5.5 7.734375 -5.78125 C 7.617188 -6.0625 7.472656 -6.320312 7.296875 -6.5625 C 7.117188 -6.800781 6.914062 -7.003906 6.6875 -7.171875 C 6.457031 -7.347656 6.203125 -7.484375 5.921875 -7.578125 C 5.640625 -7.679688 5.335938 -7.734375 5.015625 -7.734375 C 4.722656 -7.734375 4.453125 -7.6875 4.203125 -7.59375 C 3.953125 -7.5 3.726562 -7.375 3.53125 -7.21875 C 3.332031 -7.0625 3.15625 -6.875 3 -6.65625 C 2.851562 -6.4375 2.726562 -6.195312 2.625 -5.9375 C 2.519531 -5.6875 2.441406 -5.421875 2.390625 -5.140625 C 2.335938 -4.859375 2.3125 -4.570312 2.3125 -4.28125 Z M 2.3125 -4.28125 "/></g></g></g><g fill="#063e58" fill-opacity="1"><g transform="translate(34.203337, 19.586215)"><g><path d="M 2.328125 -5.359375 C 2.335938 -5.367188 2.347656 -5.375 2.359375 -5.375 C 2.378906 -5.382812 2.394531 -5.390625 2.40625 -5.390625 C 2.46875 -5.390625 2.5 -5.34375 2.5 -5.25 L 2.5 -4.28125 C 2.5 -4.269531 2.5 -4.253906 2.5 -4.234375 C 2.507812 -4.222656 2.523438 -4.21875 2.546875 -4.21875 C 2.554688 -4.21875 2.566406 -4.222656 2.578125 -4.234375 C 2.597656 -4.242188 2.613281 -4.257812 2.625 -4.28125 C 2.6875 -4.363281 2.757812 -4.460938 2.84375 -4.578125 C 2.9375 -4.691406 3.03125 -4.796875 3.125 -4.890625 C 3.21875 -4.992188 3.316406 -5.078125 3.421875 -5.140625 C 3.523438 -5.210938 3.625 -5.25 3.71875 -5.25 C 3.789062 -5.25 3.878906 -5.226562 3.984375 -5.1875 C 4.097656 -5.144531 4.207031 -5.097656 4.3125 -5.046875 C 4.414062 -4.992188 4.503906 -4.941406 4.578125 -4.890625 C 4.660156 -4.835938 4.703125 -4.796875 4.703125 -4.765625 C 4.703125 -4.722656 4.679688 -4.65625 4.640625 -4.5625 C 4.609375 -4.46875 4.566406 -4.375 4.515625 -4.28125 C 4.460938 -4.1875 4.40625 -4.101562 4.34375 -4.03125 C 4.289062 -3.957031 4.238281 -3.921875 4.1875 -3.921875 L 4.171875 -3.921875 C 4.109375 -3.941406 4.039062 -3.96875 3.96875 -4 C 3.894531 -4.03125 3.820312 -4.0625 3.75 -4.09375 C 3.675781 -4.132812 3.601562 -4.164062 3.53125 -4.1875 C 3.457031 -4.207031 3.382812 -4.21875 3.3125 -4.21875 C 3.195312 -4.21875 3.085938 -4.191406 2.984375 -4.140625 C 2.890625 -4.085938 2.804688 -4.023438 2.734375 -3.953125 C 2.660156 -3.878906 2.601562 -3.796875 2.5625 -3.703125 C 2.519531 -3.617188 2.5 -3.535156 2.5 -3.453125 L 2.5 -1.03125 C 2.5 -0.925781 2.519531 -0.835938 2.5625 -0.765625 C 2.613281 -0.691406 2.675781 -0.628906 2.75 -0.578125 C 2.832031 -0.535156 2.914062 -0.5 3 -0.46875 C 3.09375 -0.445312 3.179688 -0.425781 3.265625 -0.40625 C 3.347656 -0.394531 3.421875 -0.382812 3.484375 -0.375 C 3.554688 -0.363281 3.609375 -0.351562 3.640625 -0.34375 C 3.679688 -0.320312 3.703125 -0.265625 3.703125 -0.171875 C 3.703125 -0.0664062 3.679688 -0.0078125 3.640625 0 L 0.359375 0 C 0.316406 -0.0078125 0.296875 -0.0664062 0.296875 -0.171875 C 0.296875 -0.265625 0.316406 -0.320312 0.359375 -0.34375 C 0.398438 -0.363281 0.46875 -0.378906 0.5625 -0.390625 C 0.65625 -0.398438 0.742188 -0.425781 0.828125 -0.46875 C 0.921875 -0.507812 1.003906 -0.570312 1.078125 -0.65625 C 1.148438 -0.738281 1.1875 -0.863281 1.1875 -1.03125 L 1.1875 -3.78125 C 1.1875 -3.875 1.160156 -3.945312 1.109375 -4 C 1.054688 -4.050781 0.988281 -4.085938 0.90625 -4.109375 C 0.832031 -4.140625 0.753906 -4.160156 0.671875 -4.171875 C 0.585938 -4.191406 0.503906 -4.210938 0.421875 -4.234375 C 0.398438 -4.242188 0.378906 -4.253906 0.359375 -4.265625 C 0.347656 -4.285156 0.34375 -4.316406 0.34375 -4.359375 C 0.34375 -4.378906 0.347656 -4.394531 0.359375 -4.40625 C 0.367188 -4.425781 0.394531 -4.445312 0.4375 -4.46875 Z M 2.328125 -5.359375 "/></g></g></g><g fill="#063e58" fill-opacity="1"><g transform="translate(38.901952, 19.586215)"><g><path d="M 0.421875 -2.671875 C 0.421875 -3.023438 0.5 -3.363281 0.65625 -3.6875 C 0.820312 -4.019531 1.035156 -4.3125 1.296875 -4.5625 C 1.566406 -4.8125 1.878906 -5.007812 2.234375 -5.15625 C 2.585938 -5.300781 2.957031 -5.375 3.34375 -5.375 C 3.757812 -5.375 4.148438 -5.300781 4.515625 -5.15625 C 4.890625 -5.019531 5.210938 -4.828125 5.484375 -4.578125 C 5.765625 -4.335938 5.988281 -4.050781 6.15625 -3.71875 C 6.320312 -3.382812 6.40625 -3.023438 6.40625 -2.640625 C 6.40625 -2.242188 6.328125 -1.875 6.171875 -1.53125 C 6.023438 -1.195312 5.816406 -0.90625 5.546875 -0.65625 C 5.285156 -0.40625 4.96875 -0.207031 4.59375 -0.0625 C 4.226562 0.0820312 3.832031 0.15625 3.40625 0.15625 C 2.96875 0.15625 2.566406 0.0820312 2.203125 -0.0625 C 1.847656 -0.207031 1.535156 -0.40625 1.265625 -0.65625 C 1.003906 -0.914062 0.796875 -1.21875 0.640625 -1.5625 C 0.492188 -1.90625 0.421875 -2.273438 0.421875 -2.671875 Z M 1.890625 -3.03125 C 1.890625 -2.820312 1.90625 -2.609375 1.9375 -2.390625 C 1.96875 -2.171875 2.007812 -1.957031 2.0625 -1.75 C 2.125 -1.539062 2.203125 -1.34375 2.296875 -1.15625 C 2.390625 -0.976562 2.5 -0.816406 2.625 -0.671875 C 2.757812 -0.535156 2.910156 -0.425781 3.078125 -0.34375 C 3.242188 -0.269531 3.425781 -0.234375 3.625 -0.234375 C 3.851562 -0.234375 4.046875 -0.289062 4.203125 -0.40625 C 4.367188 -0.519531 4.503906 -0.671875 4.609375 -0.859375 C 4.710938 -1.046875 4.785156 -1.253906 4.828125 -1.484375 C 4.878906 -1.722656 4.90625 -1.957031 4.90625 -2.1875 C 4.90625 -2.375 4.890625 -2.570312 4.859375 -2.78125 C 4.828125 -2.988281 4.773438 -3.191406 4.703125 -3.390625 C 4.640625 -3.597656 4.554688 -3.789062 4.453125 -3.96875 C 4.359375 -4.15625 4.242188 -4.320312 4.109375 -4.46875 C 3.984375 -4.613281 3.835938 -4.726562 3.671875 -4.8125 C 3.515625 -4.894531 3.335938 -4.9375 3.140625 -4.9375 C 2.929688 -4.9375 2.742188 -4.878906 2.578125 -4.765625 C 2.421875 -4.648438 2.289062 -4.5 2.1875 -4.3125 C 2.09375 -4.125 2.019531 -3.914062 1.96875 -3.6875 C 1.914062 -3.46875 1.890625 -3.25 1.890625 -3.03125 Z M 1.890625 -3.03125 "/></g></g></g><g fill="#063e58" fill-opacity="1"><g transform="translate(45.73578, 19.586215)"><g><path d="M 2.09375 -5.53125 C 2.113281 -5.539062 2.128906 -5.546875 2.140625 -5.546875 C 2.160156 -5.554688 2.175781 -5.5625 2.1875 -5.5625 C 2.25 -5.5625 2.28125 -5.519531 2.28125 -5.4375 L 2.28125 -4.828125 C 2.28125 -4.804688 2.285156 -4.789062 2.296875 -4.78125 C 2.316406 -4.769531 2.332031 -4.765625 2.34375 -4.765625 C 2.363281 -4.765625 2.378906 -4.769531 2.390625 -4.78125 C 2.410156 -4.789062 2.429688 -4.800781 2.453125 -4.8125 C 2.597656 -4.894531 2.734375 -4.96875 2.859375 -5.03125 C 2.984375 -5.09375 3.097656 -5.140625 3.203125 -5.171875 C 3.316406 -5.210938 3.429688 -5.238281 3.546875 -5.25 C 3.660156 -5.269531 3.796875 -5.28125 3.953125 -5.28125 C 4.273438 -5.28125 4.5625 -5.203125 4.8125 -5.046875 C 5.070312 -4.898438 5.289062 -4.703125 5.46875 -4.453125 C 5.644531 -4.203125 5.78125 -3.921875 5.875 -3.609375 C 5.976562 -3.296875 6.03125 -2.984375 6.03125 -2.671875 C 6.03125 -2.429688 5.992188 -2.195312 5.921875 -1.96875 C 5.859375 -1.738281 5.769531 -1.519531 5.65625 -1.3125 C 5.539062 -1.101562 5.40625 -0.910156 5.25 -0.734375 C 5.09375 -0.554688 4.914062 -0.398438 4.71875 -0.265625 C 4.53125 -0.128906 4.328125 -0.0234375 4.109375 0.046875 C 3.890625 0.117188 3.664062 0.15625 3.4375 0.15625 C 3.257812 0.15625 3.085938 0.140625 2.921875 0.109375 C 2.765625 0.0859375 2.585938 0.0546875 2.390625 0.015625 C 2.328125 0.015625 2.289062 0.0351562 2.28125 0.078125 C 2.28125 0.128906 2.28125 0.179688 2.28125 0.234375 L 2.28125 2.5625 C 2.28125 2.664062 2.300781 2.753906 2.34375 2.828125 C 2.394531 2.898438 2.457031 2.960938 2.53125 3.015625 C 2.601562 3.066406 2.679688 3.101562 2.765625 3.125 C 2.859375 3.144531 2.945312 3.160156 3.03125 3.171875 C 3.113281 3.191406 3.1875 3.207031 3.25 3.21875 C 3.320312 3.226562 3.378906 3.242188 3.421875 3.265625 C 3.453125 3.273438 3.46875 3.296875 3.46875 3.328125 C 3.46875 3.378906 3.453125 3.410156 3.421875 3.421875 L 0.125 3.421875 C 0.0820312 3.410156 0.0625 3.378906 0.0625 3.328125 C 0.0625 3.296875 0.0820312 3.273438 0.125 3.265625 C 0.175781 3.234375 0.242188 3.210938 0.328125 3.203125 C 0.421875 3.191406 0.515625 3.164062 0.609375 3.125 C 0.703125 3.082031 0.78125 3.019531 0.84375 2.9375 C 0.914062 2.851562 0.953125 2.726562 0.953125 2.5625 L 0.953125 -3.953125 C 0.953125 -4.046875 0.925781 -4.117188 0.875 -4.171875 C 0.820312 -4.222656 0.757812 -4.257812 0.6875 -4.28125 C 0.613281 -4.3125 0.53125 -4.335938 0.4375 -4.359375 C 0.351562 -4.378906 0.269531 -4.398438 0.1875 -4.421875 C 0.164062 -4.421875 0.148438 -4.425781 0.140625 -4.4375 C 0.128906 -4.457031 0.125 -4.488281 0.125 -4.53125 C 0.125 -4.550781 0.128906 -4.566406 0.140625 -4.578125 C 0.148438 -4.597656 0.171875 -4.617188 0.203125 -4.640625 Z M 3.4375 -4.640625 C 3.238281 -4.640625 3.050781 -4.609375 2.875 -4.546875 C 2.707031 -4.492188 2.535156 -4.40625 2.359375 -4.28125 C 2.347656 -4.269531 2.335938 -4.257812 2.328125 -4.25 C 2.328125 -4.238281 2.320312 -4.234375 2.3125 -4.234375 L 2.28125 -4.1875 L 2.28125 -1.140625 C 2.28125 -1.128906 2.28125 -1.097656 2.28125 -1.046875 C 2.28125 -0.992188 2.285156 -0.945312 2.296875 -0.90625 C 2.304688 -0.832031 2.351562 -0.757812 2.4375 -0.6875 C 2.53125 -0.625 2.632812 -0.566406 2.75 -0.515625 C 2.863281 -0.472656 2.972656 -0.4375 3.078125 -0.40625 C 3.191406 -0.382812 3.285156 -0.375 3.359375 -0.375 C 3.609375 -0.375 3.816406 -0.421875 3.984375 -0.515625 C 4.160156 -0.609375 4.300781 -0.726562 4.40625 -0.875 C 4.519531 -1.03125 4.597656 -1.210938 4.640625 -1.421875 C 4.691406 -1.628906 4.71875 -1.847656 4.71875 -2.078125 C 4.71875 -2.253906 4.707031 -2.441406 4.6875 -2.640625 C 4.664062 -2.835938 4.632812 -3.03125 4.59375 -3.21875 C 4.550781 -3.40625 4.5 -3.582031 4.4375 -3.75 C 4.375 -3.925781 4.296875 -4.078125 4.203125 -4.203125 C 4.109375 -4.335938 4 -4.441406 3.875 -4.515625 C 3.75 -4.597656 3.601562 -4.640625 3.4375 -4.640625 Z M 3.4375 -4.640625 "/></g></g></g><g fill="#063e58" fill-opacity="1"><g transform="translate(52.39262, 19.586215)"><g><path d="M 0.421875 -2.671875 C 0.421875 -3.023438 0.5 -3.363281 0.65625 -3.6875 C 0.820312 -4.019531 1.035156 -4.3125 1.296875 -4.5625 C 1.566406 -4.8125 1.878906 -5.007812 2.234375 -5.15625 C 2.585938 -5.300781 2.957031 -5.375 3.34375 -5.375 C 3.757812 -5.375 4.148438 -5.300781 4.515625 -5.15625 C 4.890625 -5.019531 5.210938 -4.828125 5.484375 -4.578125 C 5.765625 -4.335938 5.988281 -4.050781 6.15625 -3.71875 C 6.320312 -3.382812 6.40625 -3.023438 6.40625 -2.640625 C 6.40625 -2.242188 6.328125 -1.875 6.171875 -1.53125 C 6.023438 -1.195312 5.816406 -0.90625 5.546875 -0.65625 C 5.285156 -0.40625 4.96875 -0.207031 4.59375 -0.0625 C 4.226562 0.0820312 3.832031 0.15625 3.40625 0.15625 C 2.96875 0.15625 2.566406 0.0820312 2.203125 -0.0625 C 1.847656 -0.207031 1.535156 -0.40625 1.265625 -0.65625 C 1.003906 -0.914062 0.796875 -1.21875 0.640625 -1.5625 C 0.492188 -1.90625 0.421875 -2.273438 0.421875 -2.671875 Z M 1.890625 -3.03125 C 1.890625 -2.820312 1.90625 -2.609375 1.9375 -2.390625 C 1.96875 -2.171875 2.007812 -1.957031 2.0625 -1.75 C 2.125 -1.539062 2.203125 -1.34375 2.296875 -1.15625 C 2.390625 -0.976562 2.5 -0.816406 2.625 -0.671875 C 2.757812 -0.535156 2.910156 -0.425781 3.078125 -0.34375 C 3.242188 -0.269531 3.425781 -0.234375 3.625 -0.234375 C 3.851562 -0.234375 4.046875 -0.289062 4.203125 -0.40625 C 4.367188 -0.519531 4.503906 -0.671875 4.609375 -0.859375 C 4.710938 -1.046875 4.785156 -1.253906 4.828125 -1.484375 C 4.878906 -1.722656 4.90625 -1.957031 4.90625 -2.1875 C 4.90625 -2.375 4.890625 -2.570312 4.859375 -2.78125 C 4.828125 -2.988281 4.773438 -3.191406 4.703125 -3.390625 C 4.640625 -3.597656 4.554688 -3.789062 4.453125 -3.96875 C 4.359375 -4.15625 4.242188 -4.320312 4.109375 -4.46875 C 3.984375 -4.613281 3.835938 -4.726562 3.671875 -4.8125 C 3.515625 -4.894531 3.335938 -4.9375 3.140625 -4.9375 C 2.929688 -4.9375 2.742188 -4.878906 2.578125 -4.765625 C 2.421875 -4.648438 2.289062 -4.5 2.1875 -4.3125 C 2.09375 -4.125 2.019531 -3.914062 1.96875 -3.6875 C 1.914062 -3.46875 1.890625 -3.25 1.890625 -3.03125 Z M 1.890625 -3.03125 "/></g></g></g><g fill="#063e58" fill-opacity="1"><g transform="translate(59.226449, 19.586215)"><g><path d="M 1.125 -0.03125 C 1.09375 -0.03125 1.0625 -0.0195312 1.03125 0 C 1.007812 0.0078125 0.984375 0.0234375 0.953125 0.046875 C 0.929688 0.078125 0.90625 0.101562 0.875 0.125 C 0.851562 0.144531 0.828125 0.15625 0.796875 0.15625 L 0.59375 0.15625 C 0.59375 0.15625 0.582031 0.101562 0.5625 0 C 0.550781 -0.113281 0.535156 -0.25 0.515625 -0.40625 C 0.492188 -0.5625 0.476562 -0.722656 0.46875 -0.890625 C 0.457031 -1.054688 0.453125 -1.191406 0.453125 -1.296875 C 0.453125 -1.359375 0.472656 -1.394531 0.515625 -1.40625 C 0.566406 -1.425781 0.613281 -1.4375 0.65625 -1.4375 C 0.6875 -1.4375 0.71875 -1.425781 0.75 -1.40625 C 0.78125 -1.394531 0.8125 -1.375 0.84375 -1.34375 C 0.875 -1.3125 0.898438 -1.28125 0.921875 -1.25 C 0.941406 -1.21875 0.957031 -1.191406 0.96875 -1.171875 C 1.03125 -1.035156 1.09375 -0.910156 1.15625 -0.796875 C 1.226562 -0.679688 1.304688 -0.582031 1.390625 -0.5 C 1.472656 -0.414062 1.570312 -0.351562 1.6875 -0.3125 C 1.800781 -0.269531 1.9375 -0.25 2.09375 -0.25 C 2.21875 -0.25 2.316406 -0.269531 2.390625 -0.3125 C 2.460938 -0.351562 2.519531 -0.40625 2.5625 -0.46875 C 2.601562 -0.539062 2.628906 -0.617188 2.640625 -0.703125 C 2.660156 -0.796875 2.671875 -0.890625 2.671875 -0.984375 C 2.671875 -1.171875 2.613281 -1.332031 2.5 -1.46875 C 2.382812 -1.601562 2.242188 -1.726562 2.078125 -1.84375 C 1.910156 -1.957031 1.722656 -2.070312 1.515625 -2.1875 C 1.316406 -2.300781 1.132812 -2.4375 0.96875 -2.59375 C 0.800781 -2.75 0.660156 -2.929688 0.546875 -3.140625 C 0.429688 -3.359375 0.375 -3.628906 0.375 -3.953125 C 0.375 -4.128906 0.429688 -4.304688 0.546875 -4.484375 C 0.660156 -4.660156 0.804688 -4.8125 0.984375 -4.9375 C 1.171875 -5.070312 1.375 -5.175781 1.59375 -5.25 C 1.820312 -5.332031 2.050781 -5.375 2.28125 -5.375 C 2.394531 -5.375 2.507812 -5.363281 2.625 -5.34375 C 2.75 -5.320312 2.859375 -5.296875 2.953125 -5.265625 C 3.054688 -5.242188 3.144531 -5.21875 3.21875 -5.1875 C 3.289062 -5.164062 3.335938 -5.148438 3.359375 -5.140625 C 3.378906 -5.117188 3.398438 -5.085938 3.421875 -5.046875 C 3.441406 -5.015625 3.453125 -4.953125 3.453125 -4.859375 C 3.460938 -4.773438 3.46875 -4.660156 3.46875 -4.515625 C 3.46875 -4.367188 3.46875 -4.175781 3.46875 -3.9375 C 3.46875 -3.875 3.441406 -3.828125 3.390625 -3.796875 C 3.347656 -3.765625 3.304688 -3.75 3.265625 -3.75 C 3.222656 -3.75 3.179688 -3.753906 3.140625 -3.765625 C 3.097656 -3.785156 3.070312 -3.816406 3.0625 -3.859375 C 3.007812 -3.972656 2.953125 -4.085938 2.890625 -4.203125 C 2.835938 -4.328125 2.773438 -4.4375 2.703125 -4.53125 C 2.628906 -4.625 2.539062 -4.703125 2.4375 -4.765625 C 2.34375 -4.828125 2.234375 -4.859375 2.109375 -4.859375 C 2.023438 -4.859375 1.945312 -4.847656 1.875 -4.828125 C 1.800781 -4.804688 1.734375 -4.769531 1.671875 -4.71875 C 1.609375 -4.664062 1.554688 -4.585938 1.515625 -4.484375 C 1.484375 -4.390625 1.46875 -4.269531 1.46875 -4.125 C 1.46875 -4 1.523438 -3.878906 1.640625 -3.765625 C 1.765625 -3.648438 1.914062 -3.535156 2.09375 -3.421875 C 2.28125 -3.316406 2.476562 -3.195312 2.6875 -3.0625 C 2.894531 -2.9375 3.085938 -2.789062 3.265625 -2.625 C 3.441406 -2.457031 3.585938 -2.265625 3.703125 -2.046875 C 3.828125 -1.828125 3.890625 -1.566406 3.890625 -1.265625 C 3.890625 -1.046875 3.832031 -0.847656 3.71875 -0.671875 C 3.613281 -0.492188 3.46875 -0.34375 3.28125 -0.21875 C 3.101562 -0.101562 2.90625 -0.015625 2.6875 0.046875 C 2.46875 0.117188 2.253906 0.15625 2.046875 0.15625 C 1.941406 0.15625 1.832031 0.144531 1.71875 0.125 C 1.613281 0.101562 1.519531 0.078125 1.4375 0.046875 C 1.351562 0.0234375 1.28125 0.0078125 1.21875 0 C 1.164062 -0.0195312 1.132812 -0.03125 1.125 -0.03125 Z M 1.125 -0.03125 "/></g></g></g><g fill="#063e58" fill-opacity="1"><g transform="translate(63.553965, 19.586215)"><g/></g></g><g fill="#063e58" fill-opacity="1"><g transform="translate(66.693984, 19.586215)"><g><path d="M 4.15625 0.15625 C 4.0625 0.15625 4 0.113281 3.96875 0.03125 L 1 -7.171875 C 0.96875 -7.253906 0.921875 -7.320312 0.859375 -7.375 C 0.804688 -7.4375 0.75 -7.488281 0.6875 -7.53125 C 0.632812 -7.570312 0.582031 -7.601562 0.53125 -7.625 C 0.476562 -7.644531 0.4375 -7.660156 0.40625 -7.671875 C 0.375 -7.679688 0.335938 -7.6875 0.296875 -7.6875 C 0.265625 -7.695312 0.234375 -7.703125 0.203125 -7.703125 C 0.171875 -7.710938 0.140625 -7.71875 0.109375 -7.71875 C 0.0859375 -7.726562 0.078125 -7.734375 0.078125 -7.734375 C 0.046875 -7.734375 0.03125 -7.75 0.03125 -7.78125 L 0.03125 -8 C 0.03125 -8.03125 0.046875 -8.046875 0.078125 -8.046875 L 3.953125 -8.046875 C 3.972656 -8.046875 3.984375 -8.039062 3.984375 -8.03125 C 3.992188 -8.019531 4 -8.007812 4 -8 L 4 -7.78125 C 4 -7.769531 3.992188 -7.757812 3.984375 -7.75 C 3.984375 -7.738281 3.972656 -7.734375 3.953125 -7.734375 L 3.875 -7.734375 C 3.769531 -7.710938 3.65625 -7.695312 3.53125 -7.6875 C 3.414062 -7.675781 3.304688 -7.648438 3.203125 -7.609375 C 3.097656 -7.566406 3.007812 -7.503906 2.9375 -7.421875 C 2.875 -7.347656 2.84375 -7.242188 2.84375 -7.109375 C 2.84375 -7.054688 2.847656 -7 2.859375 -6.9375 C 2.878906 -6.875 2.898438 -6.820312 2.921875 -6.78125 L 4.953125 -1.828125 C 4.960938 -1.816406 4.96875 -1.804688 4.96875 -1.796875 C 4.976562 -1.796875 4.988281 -1.789062 5 -1.78125 C 5 -1.78125 5.003906 -1.78125 5.015625 -1.78125 C 5.046875 -1.78125 5.066406 -1.800781 5.078125 -1.84375 L 6.953125 -6.890625 C 6.960938 -6.929688 6.976562 -6.96875 7 -7 C 7.019531 -7.039062 7.03125 -7.082031 7.03125 -7.125 C 7.03125 -7.257812 6.984375 -7.375 6.890625 -7.46875 C 6.804688 -7.5625 6.6875 -7.625 6.53125 -7.65625 C 6.507812 -7.65625 6.472656 -7.660156 6.421875 -7.671875 C 6.367188 -7.679688 6.3125 -7.6875 6.25 -7.6875 C 6.195312 -7.695312 6.144531 -7.707031 6.09375 -7.71875 C 6.039062 -7.726562 6 -7.734375 5.96875 -7.734375 C 5.9375 -7.734375 5.921875 -7.75 5.921875 -7.78125 L 5.921875 -8 C 5.921875 -8.007812 5.921875 -8.019531 5.921875 -8.03125 C 5.929688 -8.039062 5.945312 -8.046875 5.96875 -8.046875 L 9.03125 -8.046875 C 9.050781 -8.046875 9.0625 -8.039062 9.0625 -8.03125 C 9.070312 -8.019531 9.078125 -8.007812 9.078125 -8 L 9.078125 -7.78125 C 9.078125 -7.769531 9.070312 -7.757812 9.0625 -7.75 C 9.0625 -7.738281 9.050781 -7.734375 9.03125 -7.734375 L 8.8125 -7.734375 C 8.601562 -7.691406 8.429688 -7.609375 8.296875 -7.484375 C 8.160156 -7.367188 8.046875 -7.226562 7.953125 -7.0625 C 7.859375 -6.90625 7.78125 -6.734375 7.71875 -6.546875 C 7.65625 -6.359375 7.59375 -6.179688 7.53125 -6.015625 L 5.3125 -0.046875 C 5.28125 0.046875 5.238281 0.101562 5.1875 0.125 C 5.144531 0.144531 5.078125 0.15625 4.984375 0.15625 Z M 4.15625 0.15625 "/></g></g></g><g fill="#063e58" fill-opacity="1"><g transform="translate(75.800044, 19.586215)"><g><path d="M 0.40625 0 C 0.375 -0.0078125 0.351562 -0.0351562 0.34375 -0.078125 C 0.34375 -0.117188 0.34375 -0.148438 0.34375 -0.171875 C 0.34375 -0.191406 0.347656 -0.222656 0.359375 -0.265625 C 0.367188 -0.304688 0.382812 -0.332031 0.40625 -0.34375 C 0.445312 -0.363281 0.515625 -0.378906 0.609375 -0.390625 C 0.703125 -0.410156 0.789062 -0.4375 0.875 -0.46875 C 0.96875 -0.507812 1.050781 -0.570312 1.125 -0.65625 C 1.195312 -0.75 1.234375 -0.878906 1.234375 -1.046875 L 1.234375 -3.78125 C 1.234375 -3.875 1.207031 -3.945312 1.15625 -4 C 1.101562 -4.050781 1.035156 -4.085938 0.953125 -4.109375 C 0.878906 -4.140625 0.800781 -4.160156 0.71875 -4.171875 C 0.632812 -4.191406 0.550781 -4.210938 0.46875 -4.234375 C 0.445312 -4.242188 0.425781 -4.253906 0.40625 -4.265625 C 0.394531 -4.285156 0.390625 -4.316406 0.390625 -4.359375 C 0.390625 -4.378906 0.394531 -4.394531 0.40625 -4.40625 C 0.414062 -4.425781 0.441406 -4.445312 0.484375 -4.46875 L 2.375 -5.359375 C 2.382812 -5.367188 2.394531 -5.375 2.40625 -5.375 C 2.425781 -5.382812 2.441406 -5.390625 2.453125 -5.390625 C 2.515625 -5.390625 2.546875 -5.34375 2.546875 -5.25 L 2.546875 -1.046875 C 2.546875 -0.878906 2.578125 -0.75 2.640625 -0.65625 C 2.710938 -0.570312 2.796875 -0.507812 2.890625 -0.46875 C 2.984375 -0.4375 3.070312 -0.410156 3.15625 -0.390625 C 3.25 -0.378906 3.320312 -0.363281 3.375 -0.34375 C 3.394531 -0.332031 3.410156 -0.304688 3.421875 -0.265625 C 3.429688 -0.222656 3.4375 -0.191406 3.4375 -0.171875 C 3.4375 -0.148438 3.429688 -0.117188 3.421875 -0.078125 C 3.410156 -0.0351562 3.394531 -0.0078125 3.375 0 Z M 0.984375 -7.453125 C 0.984375 -7.703125 1.054688 -7.894531 1.203125 -8.03125 C 1.347656 -8.175781 1.539062 -8.25 1.78125 -8.25 C 2.019531 -8.25 2.210938 -8.175781 2.359375 -8.03125 C 2.503906 -7.894531 2.578125 -7.703125 2.578125 -7.453125 C 2.578125 -7.210938 2.503906 -7.019531 2.359375 -6.875 C 2.210938 -6.738281 2.019531 -6.671875 1.78125 -6.671875 C 1.539062 -6.671875 1.347656 -6.738281 1.203125 -6.875 C 1.054688 -7.019531 0.984375 -7.210938 0.984375 -7.453125 Z M 0.984375 -7.453125 "/></g></g></g><g fill="#063e58" fill-opacity="1"><g transform="translate(79.522394, 19.586215)"><g><path d="M 3.203125 -0.171875 C 3.203125 -0.148438 3.195312 -0.117188 3.1875 -0.078125 C 3.1875 -0.0351562 3.175781 -0.0078125 3.15625 0 L 0.171875 0 C 0.148438 -0.0078125 0.132812 -0.0351562 0.125 -0.078125 C 0.113281 -0.117188 0.109375 -0.148438 0.109375 -0.171875 C 0.109375 -0.191406 0.113281 -0.222656 0.125 -0.265625 C 0.132812 -0.304688 0.148438 -0.332031 0.171875 -0.34375 C 0.222656 -0.363281 0.289062 -0.378906 0.375 -0.390625 C 0.46875 -0.398438 0.5625 -0.425781 0.65625 -0.46875 C 0.75 -0.507812 0.828125 -0.570312 0.890625 -0.65625 C 0.960938 -0.738281 1 -0.863281 1 -1.03125 L 1 -7.6875 C 1 -7.78125 0.972656 -7.851562 0.921875 -7.90625 C 0.867188 -7.957031 0.804688 -7.992188 0.734375 -8.015625 C 0.660156 -8.046875 0.578125 -8.066406 0.484375 -8.078125 C 0.398438 -8.097656 0.316406 -8.125 0.234375 -8.15625 C 0.191406 -8.164062 0.171875 -8.21875 0.171875 -8.3125 C 0.171875 -8.332031 0.175781 -8.359375 0.1875 -8.390625 C 0.195312 -8.421875 0.21875 -8.445312 0.25 -8.46875 L 2.140625 -9.359375 C 2.148438 -9.359375 2.164062 -9.363281 2.1875 -9.375 C 2.207031 -9.382812 2.226562 -9.390625 2.25 -9.390625 C 2.28125 -9.390625 2.300781 -9.378906 2.3125 -9.359375 C 2.320312 -9.335938 2.328125 -9.300781 2.328125 -9.25 L 2.328125 -1.03125 C 2.328125 -0.863281 2.359375 -0.738281 2.421875 -0.65625 C 2.492188 -0.570312 2.570312 -0.507812 2.65625 -0.46875 C 2.75 -0.425781 2.84375 -0.398438 2.9375 -0.390625 C 3.03125 -0.378906 3.101562 -0.363281 3.15625 -0.34375 C 3.164062 -0.332031 3.175781 -0.304688 3.1875 -0.265625 C 3.195312 -0.222656 3.203125 -0.191406 3.203125 -0.171875 Z M 3.203125 -0.171875 "/></g></g></g><g fill="#063e58" fill-opacity="1"><g transform="translate(82.930747, 19.586215)"><g><path d="M 3.203125 -0.171875 C 3.203125 -0.148438 3.195312 -0.117188 3.1875 -0.078125 C 3.1875 -0.0351562 3.175781 -0.0078125 3.15625 0 L 0.171875 0 C 0.148438 -0.0078125 0.132812 -0.0351562 0.125 -0.078125 C 0.113281 -0.117188 0.109375 -0.148438 0.109375 -0.171875 C 0.109375 -0.191406 0.113281 -0.222656 0.125 -0.265625 C 0.132812 -0.304688 0.148438 -0.332031 0.171875 -0.34375 C 0.222656 -0.363281 0.289062 -0.378906 0.375 -0.390625 C 0.46875 -0.398438 0.5625 -0.425781 0.65625 -0.46875 C 0.75 -0.507812 0.828125 -0.570312 0.890625 -0.65625 C 0.960938 -0.738281 1 -0.863281 1 -1.03125 L 1 -7.6875 C 1 -7.78125 0.972656 -7.851562 0.921875 -7.90625 C 0.867188 -7.957031 0.804688 -7.992188 0.734375 -8.015625 C 0.660156 -8.046875 0.578125 -8.066406 0.484375 -8.078125 C 0.398438 -8.097656 0.316406 -8.125 0.234375 -8.15625 C 0.191406 -8.164062 0.171875 -8.21875 0.171875 -8.3125 C 0.171875 -8.332031 0.175781 -8.359375 0.1875 -8.390625 C 0.195312 -8.421875 0.21875 -8.445312 0.25 -8.46875 L 2.140625 -9.359375 C 2.148438 -9.359375 2.164062 -9.363281 2.1875 -9.375 C 2.207031 -9.382812 2.226562 -9.390625 2.25 -9.390625 C 2.28125 -9.390625 2.300781 -9.378906 2.3125 -9.359375 C 2.320312 -9.335938 2.328125 -9.300781 2.328125 -9.25 L 2.328125 -1.03125 C 2.328125 -0.863281 2.359375 -0.738281 2.421875 -0.65625 C 2.492188 -0.570312 2.570312 -0.507812 2.65625 -0.46875 C 2.75 -0.425781 2.84375 -0.398438 2.9375 -0.390625 C 3.03125 -0.378906 3.101562 -0.363281 3.15625 -0.34375 C 3.164062 -0.332031 3.175781 -0.304688 3.1875 -0.265625 C 3.195312 -0.222656 3.203125 -0.191406 3.203125 -0.171875 Z M 3.203125 -0.171875 "/></g></g></g><g fill="#063e58" fill-opacity="1"><g transform="translate(86.3391, 19.586215)"><g><path d="M 2.78125 -0.109375 C 2.65625 -0.0234375 2.503906 0.0390625 2.328125 0.09375 C 2.160156 0.144531 1.992188 0.171875 1.828125 0.171875 C 1.359375 0.171875 1.003906 0.0664062 0.765625 -0.140625 C 0.523438 -0.359375 0.40625 -0.644531 0.40625 -1 C 0.40625 -1.207031 0.445312 -1.382812 0.53125 -1.53125 C 0.625 -1.675781 0.765625 -1.804688 0.953125 -1.921875 C 1.140625 -2.035156 1.363281 -2.140625 1.625 -2.234375 C 1.894531 -2.328125 2.207031 -2.421875 2.5625 -2.515625 C 2.75 -2.554688 2.898438 -2.601562 3.015625 -2.65625 C 3.140625 -2.71875 3.25 -2.78125 3.34375 -2.84375 C 3.40625 -2.875 3.441406 -2.898438 3.453125 -2.921875 C 3.460938 -2.953125 3.46875 -2.976562 3.46875 -3 L 3.46875 -4 C 3.46875 -4.125 3.445312 -4.238281 3.40625 -4.34375 C 3.375 -4.457031 3.320312 -4.550781 3.25 -4.625 C 3.175781 -4.707031 3.085938 -4.769531 2.984375 -4.8125 C 2.890625 -4.863281 2.773438 -4.890625 2.640625 -4.890625 C 2.535156 -4.890625 2.429688 -4.867188 2.328125 -4.828125 C 2.234375 -4.785156 2.148438 -4.726562 2.078125 -4.65625 C 2.015625 -4.582031 1.960938 -4.492188 1.921875 -4.390625 C 1.878906 -4.296875 1.859375 -4.1875 1.859375 -4.0625 C 1.859375 -4.050781 1.859375 -4.035156 1.859375 -4.015625 C 1.867188 -3.992188 1.875 -3.96875 1.875 -3.9375 C 1.882812 -3.914062 1.890625 -3.894531 1.890625 -3.875 C 1.890625 -3.863281 1.890625 -3.851562 1.890625 -3.84375 C 1.890625 -3.832031 1.859375 -3.816406 1.796875 -3.796875 C 1.742188 -3.773438 1.671875 -3.75 1.578125 -3.71875 C 1.492188 -3.695312 1.398438 -3.671875 1.296875 -3.640625 C 1.191406 -3.609375 1.09375 -3.578125 1 -3.546875 C 0.914062 -3.523438 0.835938 -3.503906 0.765625 -3.484375 C 0.691406 -3.460938 0.640625 -3.453125 0.609375 -3.453125 C 0.566406 -3.453125 0.539062 -3.472656 0.53125 -3.515625 C 0.53125 -3.554688 0.53125 -3.597656 0.53125 -3.640625 C 0.53125 -3.859375 0.59375 -4.070312 0.71875 -4.28125 C 0.851562 -4.488281 1.03125 -4.671875 1.25 -4.828125 C 1.476562 -4.992188 1.734375 -5.125 2.015625 -5.21875 C 2.304688 -5.320312 2.609375 -5.375 2.921875 -5.375 C 3.191406 -5.375 3.4375 -5.335938 3.65625 -5.265625 C 3.875 -5.203125 4.054688 -5.109375 4.203125 -4.984375 C 4.359375 -4.859375 4.472656 -4.710938 4.546875 -4.546875 C 4.628906 -4.390625 4.671875 -4.222656 4.671875 -4.046875 L 4.671875 -1.3125 C 4.671875 -1.21875 4.707031 -1.128906 4.78125 -1.046875 C 4.863281 -0.972656 4.960938 -0.9375 5.078125 -0.9375 C 5.148438 -0.9375 5.210938 -0.945312 5.265625 -0.96875 C 5.316406 -1 5.363281 -1.03125 5.40625 -1.0625 C 5.457031 -1.09375 5.492188 -1.117188 5.515625 -1.140625 C 5.546875 -1.171875 5.578125 -1.1875 5.609375 -1.1875 C 5.640625 -1.1875 5.65625 -1.171875 5.65625 -1.140625 C 5.65625 -1.117188 5.65625 -1.097656 5.65625 -1.078125 C 5.65625 -1.015625 5.644531 -0.945312 5.625 -0.875 C 5.613281 -0.8125 5.585938 -0.765625 5.546875 -0.734375 C 5.359375 -0.597656 5.191406 -0.472656 5.046875 -0.359375 C 4.898438 -0.242188 4.769531 -0.144531 4.65625 -0.0625 C 4.539062 0.0078125 4.429688 0.0664062 4.328125 0.109375 C 4.234375 0.148438 4.144531 0.171875 4.0625 0.171875 C 3.988281 0.171875 3.921875 0.148438 3.859375 0.109375 C 3.804688 0.0664062 3.753906 0.0195312 3.703125 -0.03125 C 3.660156 -0.09375 3.625 -0.160156 3.59375 -0.234375 C 3.570312 -0.304688 3.550781 -0.375 3.53125 -0.4375 C 3.507812 -0.5 3.488281 -0.546875 3.46875 -0.578125 C 3.457031 -0.617188 3.453125 -0.640625 3.453125 -0.640625 Z M 1.734375 -1.140625 C 1.734375 -1.035156 1.75 -0.945312 1.78125 -0.875 C 1.820312 -0.8125 1.875 -0.765625 1.9375 -0.734375 C 2.007812 -0.703125 2.082031 -0.675781 2.15625 -0.65625 C 2.238281 -0.644531 2.328125 -0.640625 2.421875 -0.640625 C 2.503906 -0.640625 2.601562 -0.660156 2.71875 -0.703125 C 2.832031 -0.742188 2.945312 -0.796875 3.0625 -0.859375 C 3.175781 -0.929688 3.269531 -1.007812 3.34375 -1.09375 C 3.425781 -1.175781 3.46875 -1.265625 3.46875 -1.359375 L 3.46875 -2.296875 C 3.46875 -2.335938 3.453125 -2.359375 3.421875 -2.359375 C 3.410156 -2.359375 3.40625 -2.351562 3.40625 -2.34375 L 2.078125 -1.734375 C 2.023438 -1.691406 1.972656 -1.65625 1.921875 -1.625 C 1.878906 -1.59375 1.84375 -1.554688 1.8125 -1.515625 C 1.789062 -1.472656 1.769531 -1.421875 1.75 -1.359375 C 1.738281 -1.296875 1.734375 -1.222656 1.734375 -1.140625 Z M 1.734375 -1.140625 "/></g></g></g></svg>